<?xml version="1.0" standalone="no"?>
<svg viewBox="0 0 200 200" xmlns="http://www.w3.org/2000/svg">
  <mask id="mask0" mask-type="alpha">
    <path d="M40.8,-43.1C51.8,-29.8,58.8,-14.9,57.8,-1C56.9,13,47.9,26,36.9,33C26,40,13,41,-3.9,44.8C-20.7,48.7,-41.4,55.4,-56.2,48.4C-71,41.4,-79.8,20.7,-75.2,4.6C-70.6,-11.5,-52.5,-22.9,-37.7,-36.2C-22.9,-49.5,-11.5,-64.5,1.7,-66.3C14.9,-68,29.8,-56.4,40.8,-43.1Z" transform="translate(100 100)" />
  </mask>
  <g  mask="url(#mask0">
    <path d="M40.8,-43.1C51.8,-29.8,58.8,-14.9,57.8,-1C56.9,13,47.9,26,36.9,33C26,40,13,41,-3.9,44.8C-20.7,48.7,-41.4,55.4,-56.2,48.4C-71,41.4,-79.8,20.7,-75.2,4.6C-70.6,-11.5,-52.5,-22.9,-37.7,-36.2C-22.9,-49.5,-11.5,-64.5,1.7,-66.3C14.9,-68,29.8,-56.4,40.8,-43.1Z" transform="translate(100 100)" />
  </g>
</svg>
